<?xml version="1.0" encoding="UTF-8" standalone="no"?><svg xmlns="http://www.w3.org/2000/svg" xmlns:xlink="http://www.w3.org/1999/xlink" contentStyleType="text/css" height="864px" preserveAspectRatio="none" style="width:798px;height:864px;background:#FFFFFF;" version="1.1" viewBox="0 0 798 864" width="798px" zoomAndPan="magnify"><defs/><g><!--MD5=[e9dc9881b850c1e2d2a8f30edb40e840]
class Widget--><g id="elem_Widget"><rect fill="#F1F1F1" height="48" id="Widget" rx="2.5" ry="2.5" style="stroke:#181818;stroke-width:0.5;" width="76" x="375" y="7"/><ellipse cx="390" cy="23" fill="#ADD1B2" rx="11" ry="11" style="stroke:#181818;stroke-width:1.0;"/><path d="M392.7656,18.875 Q392.9219,18.6563 393.1094,18.5469 Q393.2969,18.4375 393.5156,18.4375 Q393.8906,18.4375 394.125,18.6953 Q394.3594,18.9531 394.3594,19.5625 L394.3594,21.0156 Q394.3594,21.625 394.125,21.8906 Q393.8906,22.1563 393.5156,22.1563 Q393.1719,22.1563 392.9688,21.9531 Q392.7656,21.7656 392.6563,21.25 Q392.6094,20.8906 392.4219,20.7031 Q392.0938,20.3281 391.4844,20.1094 Q390.875,19.8906 390.25,19.8906 Q389.4844,19.8906 388.8516,20.2188 Q388.2188,20.5469 387.7266,21.2969 Q387.2344,22.0469 387.2344,23.0781 L387.2344,24.1719 Q387.2344,25.4063 388.125,26.2266 Q389.0156,27.0469 390.6094,27.0469 Q391.5469,27.0469 392.2031,26.7969 Q392.5938,26.6406 393.0156,26.2031 Q393.2813,25.9375 393.4297,25.8594 Q393.5781,25.7813 393.7813,25.7813 Q394.1094,25.7813 394.3672,26.0391 Q394.625,26.2969 394.625,26.6406 Q394.625,26.9844 394.2813,27.3906 Q393.7813,27.9688 392.9844,28.2969 Q391.9063,28.75 390.6094,28.75 Q389.0938,28.75 387.8906,28.125 Q386.9063,27.625 386.2188,26.5547 Q385.5313,25.4844 385.5313,24.2031 L385.5313,23.0469 Q385.5313,21.7188 386.1484,20.5703 Q386.7656,19.4219 387.8594,18.8047 Q388.9531,18.1875 390.1875,18.1875 Q390.9219,18.1875 391.5703,18.3516 Q392.2188,18.5156 392.7656,18.875 Z " fill="#000000"/><text fill="#000000" font-family="sans-serif" font-size="14" lengthAdjust="spacing" textLength="44" x="404" y="28.7285">Widget</text><line style="stroke:#181818;stroke-width:0.5;" x1="376" x2="450" y1="39" y2="39"/><line style="stroke:#181818;stroke-width:0.5;" x1="376" x2="450" y1="47" y2="47"/></g><!--MD5=[e27081137b6560dea6d4a751bd8d7cec]
class InputWidget--><g id="elem_InputWidget"><rect codeLine="10" fill="#F1F1F1" height="241.7031" id="InputWidget" rx="2.5" ry="2.5" style="stroke:#181818;stroke-width:0.5;" width="160" x="333" y="115"/><ellipse cx="371.85" cy="131" fill="#ADD1B2" rx="11" ry="11" style="stroke:#181818;stroke-width:1.0;"/><path d="M374.6156,126.875 Q374.7719,126.6563 374.9594,126.5469 Q375.1469,126.4375 375.3656,126.4375 Q375.7406,126.4375 375.975,126.6953 Q376.2094,126.9531 376.2094,127.5625 L376.2094,129.0156 Q376.2094,129.625 375.975,129.8906 Q375.7406,130.1563 375.3656,130.1563 Q375.0219,130.1563 374.8188,129.9531 Q374.6156,129.7656 374.5063,129.25 Q374.4594,128.8906 374.2719,128.7031 Q373.9438,128.3281 373.3344,128.1094 Q372.725,127.8906 372.1,127.8906 Q371.3344,127.8906 370.7016,128.2188 Q370.0688,128.5469 369.5766,129.2969 Q369.0844,130.0469 369.0844,131.0781 L369.0844,132.1719 Q369.0844,133.4063 369.975,134.2266 Q370.8656,135.0469 372.4594,135.0469 Q373.3969,135.0469 374.0531,134.7969 Q374.4438,134.6406 374.8656,134.2031 Q375.1313,133.9375 375.2797,133.8594 Q375.4281,133.7813 375.6313,133.7813 Q375.9594,133.7813 376.2172,134.0391 Q376.475,134.2969 376.475,134.6406 Q376.475,134.9844 376.1313,135.3906 Q375.6313,135.9688 374.8344,136.2969 Q373.7563,136.75 372.4594,136.75 Q370.9438,136.75 369.7406,136.125 Q368.7563,135.625 368.0688,134.5547 Q367.3813,133.4844 367.3813,132.2031 L367.3813,131.0469 Q367.3813,129.7188 367.9984,128.5703 Q368.6156,127.4219 369.7094,126.8047 Q370.8031,126.1875 372.0375,126.1875 Q372.7719,126.1875 373.4203,126.3516 Q374.0688,126.5156 374.6156,126.875 Z " fill="#000000"/><text fill="#000000" font-family="sans-serif" font-size="14" lengthAdjust="spacing" textLength="75" x="391.15" y="136.7285">InputWidget</text><line style="stroke:#181818;stroke-width:0.5;" x1="334" x2="492" y1="147" y2="147"/><polygon fill="none" points="344,153,348,157,344,161,340,157" style="stroke:#B38D22;stroke-width:1.0;"/><text fill="#000000" font-family="sans-serif" font-size="14" lengthAdjust="spacing" textLength="34" x="353" y="165.5332">value</text><polygon fill="none" points="344,170.6094,348,174.6094,344,178.6094,340,174.6094" style="stroke:#B38D22;stroke-width:1.0;"/><text fill="#000000" font-family="sans-serif" font-size="14" lengthAdjust="spacing" textLength="69" x="353" y="183.1426">dom_value</text><line style="stroke:#181818;stroke-width:0.5;" x1="334" x2="492" y1="190.2188" y2="190.2188"/><text fill="#000000" font-family="sans-serif" font-size="14" lengthAdjust="spacing" textLength="112" x="339" y="208.752">formatted_value()</text><text fill="#000000" font-family="sans-serif" font-size="14" lengthAdjust="spacing" textLength="106" x="339" y="226.3613">get_field_value()</text><text fill="#000000" font-family="sans-serif" font-size="14" lengthAdjust="spacing" textLength="113" x="339" y="243.9707">data_changed(...)</text><text fill="#000000" font-family="sans-serif" font-size="14" lengthAdjust="spacing" textLength="148" x="339" y="261.5801">widget_changed(event)</text><text fill="#000000" font-family="sans-serif" font-size="14" lengthAdjust="spacing" textLength="4" x="339" y="279.1895"> </text><text fill="#000000" font-family="sans-serif" font-size="14" lengthAdjust="spacing" textLength="77" x="339" y="296.7988">stringify(val)</text><text fill="#000000" font-family="sans-serif" font-size="14" lengthAdjust="spacing" textLength="62" x="339" y="314.4082">parse(str)</text><text fill="#000000" font-family="sans-serif" font-size="14" lengthAdjust="spacing" textLength="4" x="339" y="332.0176"> </text><text fill="#000000" font-family="sans-serif" font-size="14" lengthAdjust="spacing" textLength="65" x="339" y="349.627">handlers()</text></g><!--MD5=[64c72a0b55cf393dae566b0f67e91fbf]
class TextInputWidget--><g id="elem_TextInputWidget"><rect fill="#F1F1F1" height="48" id="TextInputWidget" rx="2.5" ry="2.5" style="stroke:#181818;stroke-width:0.5;" width="134" x="7" y="443.5"/><ellipse cx="22" cy="459.5" fill="#ADD1B2" rx="11" ry="11" style="stroke:#181818;stroke-width:1.0;"/><path d="M24.7656,455.375 Q24.9219,455.1563 25.1094,455.0469 Q25.2969,454.9375 25.5156,454.9375 Q25.8906,454.9375 26.125,455.1953 Q26.3594,455.4531 26.3594,456.0625 L26.3594,457.5156 Q26.3594,458.125 26.125,458.3906 Q25.8906,458.6563 25.5156,458.6563 Q25.1719,458.6563 24.9688,458.4531 Q24.7656,458.2656 24.6563,457.75 Q24.6094,457.3906 24.4219,457.2031 Q24.0938,456.8281 23.4844,456.6094 Q22.875,456.3906 22.25,456.3906 Q21.4844,456.3906 20.8516,456.7188 Q20.2188,457.0469 19.7266,457.7969 Q19.2344,458.5469 19.2344,459.5781 L19.2344,460.6719 Q19.2344,461.9063 20.125,462.7266 Q21.0156,463.5469 22.6094,463.5469 Q23.5469,463.5469 24.2031,463.2969 Q24.5938,463.1406 25.0156,462.7031 Q25.2813,462.4375 25.4297,462.3594 Q25.5781,462.2813 25.7813,462.2813 Q26.1094,462.2813 26.3672,462.5391 Q26.625,462.7969 26.625,463.1406 Q26.625,463.4844 26.2813,463.8906 Q25.7813,464.4688 24.9844,464.7969 Q23.9063,465.25 22.6094,465.25 Q21.0938,465.25 19.8906,464.625 Q18.9063,464.125 18.2188,463.0547 Q17.5313,461.9844 17.5313,460.7031 L17.5313,459.5469 Q17.5313,458.2188 18.1484,457.0703 Q18.7656,455.9219 19.8594,455.3047 Q20.9531,454.6875 22.1875,454.6875 Q22.9219,454.6875 23.5703,454.8516 Q24.2188,455.0156 24.7656,455.375 Z " fill="#000000"/><text fill="#000000" font-family="sans-serif" font-size="14" lengthAdjust="spacing" textLength="102" x="36" y="465.2285">TextInputWidget</text><line style="stroke:#181818;stroke-width:0.5;" x1="8" x2="140" y1="475.5" y2="475.5"/><line style="stroke:#181818;stroke-width:0.5;" x1="8" x2="140" y1="483.5" y2="483.5"/></g><!--MD5=[3fd3bf7c1fba05060ca9b480d37be79d]
class DurationWidget--><g id="elem_DurationWidget"><rect fill="#F1F1F1" height="48" id="DurationWidget" rx="2.5" ry="2.5" style="stroke:#181818;stroke-width:0.5;" width="130" x="176" y="443.5"/><ellipse cx="191" cy="459.5" fill="#ADD1B2" rx="11" ry="11" style="stroke:#181818;stroke-width:1.0;"/><path d="M193.7656,455.375 Q193.9219,455.1563 194.1094,455.0469 Q194.2969,454.9375 194.5156,454.9375 Q194.8906,454.9375 195.125,455.1953 Q195.3594,455.4531 195.3594,456.0625 L195.3594,457.5156 Q195.3594,458.125 195.125,458.3906 Q194.8906,458.6563 194.5156,458.6563 Q194.1719,458.6563 193.9688,458.4531 Q193.7656,458.2656 193.6563,457.75 Q193.6094,457.3906 193.4219,457.2031 Q193.0938,456.8281 192.4844,456.6094 Q191.875,456.3906 191.25,456.3906 Q190.4844,456.3906 189.8516,456.7188 Q189.2188,457.0469 188.7266,457.7969 Q188.2344,458.5469 188.2344,459.5781 L188.2344,460.6719 Q188.2344,461.9063 189.125,462.7266 Q190.0156,463.5469 191.6094,463.5469 Q192.5469,463.5469 193.2031,463.2969 Q193.5938,463.1406 194.0156,462.7031 Q194.2813,462.4375 194.4297,462.3594 Q194.5781,462.2813 194.7813,462.2813 Q195.1094,462.2813 195.3672,462.5391 Q195.625,462.7969 195.625,463.1406 Q195.625,463.4844 195.2813,463.8906 Q194.7813,464.4688 193.9844,464.7969 Q192.9063,465.25 191.6094,465.25 Q190.0938,465.25 188.8906,464.625 Q187.9063,464.125 187.2188,463.0547 Q186.5313,461.9844 186.5313,460.7031 L186.5313,459.5469 Q186.5313,458.2188 187.1484,457.0703 Q187.7656,455.9219 188.8594,455.3047 Q189.9531,454.6875 191.1875,454.6875 Q191.9219,454.6875 192.5703,454.8516 Q193.2188,455.0156 193.7656,455.375 Z " fill="#000000"/><text fill="#000000" font-family="sans-serif" font-size="14" lengthAdjust="spacing" textLength="98" x="205" y="465.2285">DurationWidget</text><line style="stroke:#181818;stroke-width:0.5;" x1="177" x2="305" y1="475.5" y2="475.5"/><line style="stroke:#181818;stroke-width:0.5;" x1="177" x2="305" y1="483.5" y2="483.5"/></g><!--MD5=[727c87faec398ec1f3c0cc94393a220c]
class RadioInputWidget--><g id="elem_RadioInputWidget"><rect codeLine="25" fill="#F1F1F1" height="65.6094" id="RadioInputWidget" rx="2.5" ry="2.5" style="stroke:#181818;stroke-width:0.5;" width="144" x="341" y="434.5"/><ellipse cx="356" cy="450.5" fill="#ADD1B2" rx="11" ry="11" style="stroke:#181818;stroke-width:1.0;"/><path d="M358.7656,446.375 Q358.9219,446.1563 359.1094,446.0469 Q359.2969,445.9375 359.5156,445.9375 Q359.8906,445.9375 360.125,446.1953 Q360.3594,446.4531 360.3594,447.0625 L360.3594,448.5156 Q360.3594,449.125 360.125,449.3906 Q359.8906,449.6563 359.5156,449.6563 Q359.1719,449.6563 358.9688,449.4531 Q358.7656,449.2656 358.6563,448.75 Q358.6094,448.3906 358.4219,448.2031 Q358.0938,447.8281 357.4844,447.6094 Q356.875,447.3906 356.25,447.3906 Q355.4844,447.3906 354.8516,447.7188 Q354.2188,448.0469 353.7266,448.7969 Q353.2344,449.5469 353.2344,450.5781 L353.2344,451.6719 Q353.2344,452.9063 354.125,453.7266 Q355.0156,454.5469 356.6094,454.5469 Q357.5469,454.5469 358.2031,454.2969 Q358.5938,454.1406 359.0156,453.7031 Q359.2813,453.4375 359.4297,453.3594 Q359.5781,453.2813 359.7813,453.2813 Q360.1094,453.2813 360.3672,453.5391 Q360.625,453.7969 360.625,454.1406 Q360.625,454.4844 360.2813,454.8906 Q359.7813,455.4688 358.9844,455.7969 Q357.9063,456.25 356.6094,456.25 Q355.0938,456.25 353.8906,455.625 Q352.9063,455.125 352.2188,454.0547 Q351.5313,452.9844 351.5313,451.7031 L351.5313,450.5469 Q351.5313,449.2188 352.1484,448.0703 Q352.7656,446.9219 353.8594,446.3047 Q354.9531,445.6875 356.1875,445.6875 Q356.9219,445.6875 357.5703,445.8516 Q358.2188,446.0156 358.7656,446.375 Z " fill="#000000"/><text fill="#000000" font-family="sans-serif" font-size="14" lengthAdjust="spacing" textLength="112" x="370" y="456.2285">RadioInputWidget</text><line style="stroke:#181818;stroke-width:0.5;" x1="342" x2="484" y1="466.5" y2="466.5"/><polygon fill="none" points="352,472.5,356,476.5,352,480.5,348,476.5" style="stroke:#B38D22;stroke-width:1.0;"/><text fill="#000000" font-family="sans-serif" font-size="14" lengthAdjust="spacing" textLength="53" x="361" y="485.0332">checked</text><line style="stroke:#181818;stroke-width:0.5;" x1="342" x2="484" y1="492.1094" y2="492.1094"/></g><!--MD5=[1be99650579fd53276b506e228def985]
class SelectWidget--><g id="elem_SelectWidget"><rect codeLine="29" fill="#F1F1F1" height="100.8281" id="SelectWidget" rx="2.5" ry="2.5" style="stroke:#181818;stroke-width:0.5;" width="115" x="520.5" y="417"/><ellipse cx="535.5" cy="433" fill="#ADD1B2" rx="11" ry="11" style="stroke:#181818;stroke-width:1.0;"/><path d="M538.2656,428.875 Q538.4219,428.6563 538.6094,428.5469 Q538.7969,428.4375 539.0156,428.4375 Q539.3906,428.4375 539.625,428.6953 Q539.8594,428.9531 539.8594,429.5625 L539.8594,431.0156 Q539.8594,431.625 539.625,431.8906 Q539.3906,432.1563 539.0156,432.1563 Q538.6719,432.1563 538.4688,431.9531 Q538.2656,431.7656 538.1563,431.25 Q538.1094,430.8906 537.9219,430.7031 Q537.5938,430.3281 536.9844,430.1094 Q536.375,429.8906 535.75,429.8906 Q534.9844,429.8906 534.3516,430.2188 Q533.7188,430.5469 533.2266,431.2969 Q532.7344,432.0469 532.7344,433.0781 L532.7344,434.1719 Q532.7344,435.4063 533.625,436.2266 Q534.5156,437.0469 536.1094,437.0469 Q537.0469,437.0469 537.7031,436.7969 Q538.0938,436.6406 538.5156,436.2031 Q538.7813,435.9375 538.9297,435.8594 Q539.0781,435.7813 539.2813,435.7813 Q539.6094,435.7813 539.8672,436.0391 Q540.125,436.2969 540.125,436.6406 Q540.125,436.9844 539.7813,437.3906 Q539.2813,437.9688 538.4844,438.2969 Q537.4063,438.75 536.1094,438.75 Q534.5938,438.75 533.3906,438.125 Q532.4063,437.625 531.7188,436.5547 Q531.0313,435.4844 531.0313,434.2031 L531.0313,433.0469 Q531.0313,431.7188 531.6484,430.5703 Q532.2656,429.4219 533.3594,428.8047 Q534.4531,428.1875 535.6875,428.1875 Q536.4219,428.1875 537.0703,428.3516 Q537.7188,428.5156 538.2656,428.875 Z " fill="#000000"/><text fill="#000000" font-family="sans-serif" font-size="14" lengthAdjust="spacing" textLength="83" x="549.5" y="438.7285">SelectWidget</text><line style="stroke:#181818;stroke-width:0.5;" x1="521.5" x2="634.5" y1="449" y2="449"/><polygon fill="none" points="531.5,455,535.5,459,531.5,463,527.5,459" style="stroke:#B38D22;stroke-width:1.0;"/><text fill="#000000" font-family="sans-serif" font-size="14" lengthAdjust="spacing" textLength="46" x="540.5" y="467.5332">options</text><polygon fill="none" points="531.5,472.6094,535.5,476.6094,531.5,480.6094,527.5,476.6094" style="stroke:#B38D22;stroke-width:1.0;"/><text fill="#000000" font-family="sans-serif" font-size="14" lengthAdjust="spacing" textLength="34" x="540.5" y="485.1426">value</text><polygon fill="none" points="531.5,490.2188,535.5,494.2188,531.5,498.2188,527.5,494.2188" style="stroke:#B38D22;stroke-width:1.0;"/><text fill="#000000" font-family="sans-serif" font-size="14" lengthAdjust="spacing" textLength="69" x="540.5" y="502.752">dom_value</text><line style="stroke:#181818;stroke-width:0.5;" x1="521.5" x2="634.5" y1="509.8281" y2="509.8281"/></g><!--MD5=[d0441c001e64d63fc73a18769ce4a6b1]
class RadioSelectWidget--><g id="elem_RadioSelectWidget"><rect codeLine="35" fill="#F1F1F1" height="100.8281" id="RadioSelectWidget" rx="2.5" ry="2.5" style="stroke:#181818;stroke-width:0.5;" width="152" x="502" y="578"/><ellipse cx="517" cy="594" fill="#ADD1B2" rx="11" ry="11" style="stroke:#181818;stroke-width:1.0;"/><path d="M519.7656,589.875 Q519.9219,589.6563 520.1094,589.5469 Q520.2969,589.4375 520.5156,589.4375 Q520.8906,589.4375 521.125,589.6953 Q521.3594,589.9531 521.3594,590.5625 L521.3594,592.0156 Q521.3594,592.625 521.125,592.8906 Q520.8906,593.1563 520.5156,593.1563 Q520.1719,593.1563 519.9688,592.9531 Q519.7656,592.7656 519.6563,592.25 Q519.6094,591.8906 519.4219,591.7031 Q519.0938,591.3281 518.4844,591.1094 Q517.875,590.8906 517.25,590.8906 Q516.4844,590.8906 515.8516,591.2188 Q515.2188,591.5469 514.7266,592.2969 Q514.2344,593.0469 514.2344,594.0781 L514.2344,595.1719 Q514.2344,596.4063 515.125,597.2266 Q516.0156,598.0469 517.6094,598.0469 Q518.5469,598.0469 519.2031,597.7969 Q519.5938,597.6406 520.0156,597.2031 Q520.2813,596.9375 520.4297,596.8594 Q520.5781,596.7813 520.7813,596.7813 Q521.1094,596.7813 521.3672,597.0391 Q521.625,597.2969 521.625,597.6406 Q521.625,597.9844 521.2813,598.3906 Q520.7813,598.9688 519.9844,599.2969 Q518.9063,599.75 517.6094,599.75 Q516.0938,599.75 514.8906,599.125 Q513.9063,598.625 513.2188,597.5547 Q512.5313,596.4844 512.5313,595.2031 L512.5313,594.0469 Q512.5313,592.7188 513.1484,591.5703 Q513.7656,590.4219 514.8594,589.8047 Q515.9531,589.1875 517.1875,589.1875 Q517.9219,589.1875 518.5703,589.3516 Q519.2188,589.5156 519.7656,589.875 Z " fill="#000000"/><text fill="#000000" font-family="sans-serif" font-size="14" lengthAdjust="spacing" textLength="120" x="531" y="599.7285">RadioSelectWidget</text><line style="stroke:#181818;stroke-width:0.5;" x1="503" x2="653" y1="610" y2="610"/><polygon fill="none" points="513,616,517,620,513,624,509,620" style="stroke:#B38D22;stroke-width:1.0;"/><text fill="#000000" font-family="sans-serif" font-size="14" lengthAdjust="spacing" textLength="69" x="522" y="628.5332">dom_value</text><line style="stroke:#181818;stroke-width:0.5;" x1="503" x2="653" y1="635.6094" y2="635.6094"/><text fill="#000000" font-family="sans-serif" font-size="14" lengthAdjust="spacing" textLength="107" x="508" y="654.1426">rebuild_options()</text><text fill="#000000" font-family="sans-serif" font-size="14" lengthAdjust="spacing" textLength="65" x="508" y="671.752">handlers()</text></g><!--MD5=[467469a151c85d78f2429a59e68466e6]
class CheckboxSelectWidget--><g id="elem_CheckboxSelectWidget"><rect codeLine="43" fill="#F1F1F1" height="118.4375" id="CheckboxSelectWidget" rx="2.5" ry="2.5" style="stroke:#181818;stroke-width:0.5;" width="177" x="489.5" y="739"/><ellipse cx="504.5" cy="755" fill="#ADD1B2" rx="11" ry="11" style="stroke:#181818;stroke-width:1.0;"/><path d="M507.2656,750.875 Q507.4219,750.6563 507.6094,750.5469 Q507.7969,750.4375 508.0156,750.4375 Q508.3906,750.4375 508.625,750.6953 Q508.8594,750.9531 508.8594,751.5625 L508.8594,753.0156 Q508.8594,753.625 508.625,753.8906 Q508.3906,754.1563 508.0156,754.1563 Q507.6719,754.1563 507.4688,753.9531 Q507.2656,753.7656 507.1563,753.25 Q507.1094,752.8906 506.9219,752.7031 Q506.5938,752.3281 505.9844,752.1094 Q505.375,751.8906 504.75,751.8906 Q503.9844,751.8906 503.3516,752.2188 Q502.7188,752.5469 502.2266,753.2969 Q501.7344,754.0469 501.7344,755.0781 L501.7344,756.1719 Q501.7344,757.4063 502.625,758.2266 Q503.5156,759.0469 505.1094,759.0469 Q506.0469,759.0469 506.7031,758.7969 Q507.0938,758.6406 507.5156,758.2031 Q507.7813,757.9375 507.9297,757.8594 Q508.0781,757.7813 508.2813,757.7813 Q508.6094,757.7813 508.8672,758.0391 Q509.125,758.2969 509.125,758.6406 Q509.125,758.9844 508.7813,759.3906 Q508.2813,759.9688 507.4844,760.2969 Q506.4063,760.75 505.1094,760.75 Q503.5938,760.75 502.3906,760.125 Q501.4063,759.625 500.7188,758.5547 Q500.0313,757.4844 500.0313,756.2031 L500.0313,755.0469 Q500.0313,753.7188 500.6484,752.5703 Q501.2656,751.4219 502.3594,750.8047 Q503.4531,750.1875 504.6875,750.1875 Q505.4219,750.1875 506.0703,750.3516 Q506.7188,750.5156 507.2656,750.875 Z " fill="#000000"/><text fill="#000000" font-family="sans-serif" font-size="14" lengthAdjust="spacing" textLength="145" x="518.5" y="760.7285">CheckboxSelectWidget</text><line style="stroke:#181818;stroke-width:0.5;" x1="490.5" x2="665.5" y1="771" y2="771"/><polygon fill="none" points="500.5,777,504.5,781,500.5,785,496.5,781" style="stroke:#B38D22;stroke-width:1.0;"/><text fill="#000000" font-family="sans-serif" font-size="14" lengthAdjust="spacing" textLength="69" x="509.5" y="789.5332">dom_value</text><line style="stroke:#181818;stroke-width:0.5;" x1="490.5" x2="665.5" y1="796.6094" y2="796.6094"/><text fill="#000000" font-family="sans-serif" font-size="14" lengthAdjust="spacing" textLength="107" x="495.5" y="815.1426">rebuild_options()</text><text fill="#000000" font-family="sans-serif" font-size="14" lengthAdjust="spacing" textLength="148" x="495.5" y="832.752">widget_changed(event)</text><text fill="#000000" font-family="sans-serif" font-size="14" lengthAdjust="spacing" textLength="65" x="495.5" y="850.3613">handlers()</text></g><!--MD5=[13a469bb8f710b9b2d83ff87ef4e1bae]
class TriboolWidget--><g id="elem_TriboolWidget"><rect fill="#F1F1F1" height="48" id="TriboolWidget" rx="2.5" ry="2.5" style="stroke:#181818;stroke-width:0.5;" width="120" x="671" y="443.5"/><ellipse cx="686" cy="459.5" fill="#ADD1B2" rx="11" ry="11" style="stroke:#181818;stroke-width:1.0;"/><path d="M688.7656,455.375 Q688.9219,455.1563 689.1094,455.0469 Q689.2969,454.9375 689.5156,454.9375 Q689.8906,454.9375 690.125,455.1953 Q690.3594,455.4531 690.3594,456.0625 L690.3594,457.5156 Q690.3594,458.125 690.125,458.3906 Q689.8906,458.6563 689.5156,458.6563 Q689.1719,458.6563 688.9688,458.4531 Q688.7656,458.2656 688.6563,457.75 Q688.6094,457.3906 688.4219,457.2031 Q688.0938,456.8281 687.4844,456.6094 Q686.875,456.3906 686.25,456.3906 Q685.4844,456.3906 684.8516,456.7188 Q684.2188,457.0469 683.7266,457.7969 Q683.2344,458.5469 683.2344,459.5781 L683.2344,460.6719 Q683.2344,461.9063 684.125,462.7266 Q685.0156,463.5469 686.6094,463.5469 Q687.5469,463.5469 688.2031,463.2969 Q688.5938,463.1406 689.0156,462.7031 Q689.2813,462.4375 689.4297,462.3594 Q689.5781,462.2813 689.7813,462.2813 Q690.1094,462.2813 690.3672,462.5391 Q690.625,462.7969 690.625,463.1406 Q690.625,463.4844 690.2813,463.8906 Q689.7813,464.4688 688.9844,464.7969 Q687.9063,465.25 686.6094,465.25 Q685.0938,465.25 683.8906,464.625 Q682.9063,464.125 682.2188,463.0547 Q681.5313,461.9844 681.5313,460.7031 L681.5313,459.5469 Q681.5313,458.2188 682.1484,457.0703 Q682.7656,455.9219 683.8594,455.3047 Q684.9531,454.6875 686.1875,454.6875 Q686.9219,454.6875 687.5703,454.8516 Q688.2188,455.0156 688.7656,455.375 Z " fill="#000000"/><text fill="#000000" font-family="sans-serif" font-size="14" lengthAdjust="spacing" textLength="88" x="700" y="465.2285">TriboolWidget</text><line style="stroke:#181818;stroke-width:0.5;" x1="672" x2="790" y1="475.5" y2="475.5"/><line style="stroke:#181818;stroke-width:0.5;" x1="672" x2="790" y1="483.5" y2="483.5"/></g><!--MD5=[23f104562920ff9cc71fb0aa13bed329]
reverse link Widget to InputWidget--><g id="link_Widget_InputWidget"><path codeLine="1" d="M413,75.7 C413,87.46 413,100.77 413,114.56 " fill="none" id="Widget-backto-InputWidget" style="stroke:#181818;stroke-width:1.0;"/><polygon fill="none" points="406,75.29,413,55.29,420,75.29,406,75.29" style="stroke:#181818;stroke-width:1.0;"/></g><!--MD5=[ff8f3c92a830056e652dde08cec4f91c]
reverse link InputWidget to TextInputWidget--><g id="link_InputWidget_TextInputWidget"><path codeLine="2" d="M315.85,302.77 C246.09,350 156.2,410.85 108.05,443.45 " fill="none" id="InputWidget-backto-TextInputWidget" style="stroke:#181818;stroke-width:1.0;"/><polygon fill="none" points="312.18,296.8,332.66,291.39,320.02,308.4,312.18,296.8" style="stroke:#181818;stroke-width:1.0;"/></g><!--MD5=[c39f7bc61479bc2ff15a4778b08d8815]
reverse link InputWidget to DurationWidget--><g id="link_InputWidget_DurationWidget"><path codeLine="3" d="M320.7,360.16 C296.88,391.93 273.71,422.85 258.55,443.08 " fill="none" id="InputWidget-backto-DurationWidget" style="stroke:#181818;stroke-width:1.0;"/><polygon fill="none" points="315.2,355.83,332.79,344.02,326.4,364.23,315.2,355.83" style="stroke:#181818;stroke-width:1.0;"/></g><!--MD5=[da10d94e66b6a78dd29a854e441dea36]
reverse link InputWidget to RadioInputWidget--><g id="link_InputWidget_RadioInputWidget"><path codeLine="4" d="M413,377.27 C413,398.45 413,418.41 413,434.06 " fill="none" id="InputWidget-backto-RadioInputWidget" style="stroke:#181818;stroke-width:1.0;"/><polygon fill="none" points="406,377.13,413,357.13,420,377.13,406,377.13" style="stroke:#181818;stroke-width:1.0;"/></g><!--MD5=[5f0f6abd1555868564432f5cecb74c8e]
reverse link InputWidget to SelectWidget--><g id="link_InputWidget_SelectWidget"><path codeLine="5" d="M504.79,364.67 C518.06,383.12 531,401.12 542.22,416.73 " fill="none" id="InputWidget-backto-SelectWidget" style="stroke:#181818;stroke-width:1.0;"/><polygon fill="none" points="499.07,368.71,493.08,348.39,510.44,360.54,499.07,368.71" style="stroke:#181818;stroke-width:1.0;"/></g><!--MD5=[c187449fc260c97e77619efb75fbb15f]
reverse link SelectWidget to RadioSelectWidget--><g id="link_SelectWidget_RadioSelectWidget"><path codeLine="6" d="M578,538.62 C578,551.83 578,565.38 578,577.8 " fill="none" id="SelectWidget-backto-RadioSelectWidget" style="stroke:#181818;stroke-width:1.0;"/><polygon fill="none" points="571,538.37,578,518.37,585,538.37,571,538.37" style="stroke:#181818;stroke-width:1.0;"/></g><!--MD5=[c10bfb2adcff152a9d552e8bda311182]
reverse link RadioSelectWidget to CheckboxSelectWidget--><g id="link_RadioSelectWidget_CheckboxSelectWidget"><path codeLine="7" d="M578,699.37 C578,712.5 578,726.11 578,738.84 " fill="none" id="RadioSelectWidget-backto-CheckboxSelectWidget" style="stroke:#181818;stroke-width:1.0;"/><polygon fill="none" points="571,699.3,578,679.3,585,699.3,571,699.3" style="stroke:#181818;stroke-width:1.0;"/></g><!--MD5=[427f1920211c9208e31a94de6d15669c]
reverse link InputWidget to TriboolWidget--><g id="link_InputWidget_TriboolWidget"><path codeLine="8" d="M509.69,306.78 C574.19,353.33 654.95,411.61 698.89,443.32 " fill="none" id="InputWidget-backto-TriboolWidget" style="stroke:#181818;stroke-width:1.0;"/><polygon fill="none" points="505.37,312.29,493.24,294.91,513.56,300.94,505.37,312.29" style="stroke:#181818;stroke-width:1.0;"/></g><!--MD5=[199ab2a038100fd4799eec249d6f253e]
@startuml
Widget <|- - InputWidget
InputWidget <|- - TextInputWidget
InputWidget <|- - DurationWidget
InputWidget <|- - RadioInputWidget
InputWidget <|- - SelectWidget
SelectWidget <|- - RadioSelectWidget
RadioSelectWidget <|- - CheckboxSelectWidget
InputWidget <|- - TriboolWidget

class InputWidget {
    #value
    #dom_value

    formatted_value()
    get_field_value()
    data_changed(...)
    widget_changed(event)

    stringify(val)
    parse(str)
    
    handlers()
}

class RadioInputWidget {
    #checked
}

class SelectWidget {
    #options
    #value
    #dom_value
}

class RadioSelectWidget {
    #dom_value

    rebuild_options()
    handlers()
}


class CheckboxSelectWidget {
    #dom_value

    rebuild_options()
    widget_changed(event)
    handlers()
}
@enduml

PlantUML version 1.2022.6(Tue Jun 21 19:34:49 CEST 2022)
(GPL source distribution)
Java Runtime: Java(TM) SE Runtime Environment
JVM: Java HotSpot(TM) Client VM
Default Encoding: Cp1252
Language: en
Country: US
--></g></svg>