<?xml version="1.0" encoding="UTF-8" standalone="no"?><svg xmlns="http://www.w3.org/2000/svg" xmlns:xlink="http://www.w3.org/1999/xlink" contentStyleType="text/css" height="1134px" preserveAspectRatio="none" style="width:208px;height:1134px;background:#FFFFFF;" version="1.1" viewBox="0 0 208 1134" width="208px" zoomAndPan="magnify"><defs/><g><!--MD5=[41e1c6cf192918703501b24b2053926c]
class Class--><g id="elem_Class"><rect fill="#F1F1F1" height="48" id="Class" rx="2.5" ry="2.5" style="stroke:#181818;stroke-width:0.5;" width="67" x="71.5" y="7"/><ellipse cx="86.5" cy="23" fill="#ADD1B2" rx="11" ry="11" style="stroke:#181818;stroke-width:1.0;"/><path d="M89.2656,18.875 Q89.4219,18.6563 89.6094,18.5469 Q89.7969,18.4375 90.0156,18.4375 Q90.3906,18.4375 90.625,18.6953 Q90.8594,18.9531 90.8594,19.5625 L90.8594,21.0156 Q90.8594,21.625 90.625,21.8906 Q90.3906,22.1563 90.0156,22.1563 Q89.6719,22.1563 89.4688,21.9531 Q89.2656,21.7656 89.1563,21.25 Q89.1094,20.8906 88.9219,20.7031 Q88.5938,20.3281 87.9844,20.1094 Q87.375,19.8906 86.75,19.8906 Q85.9844,19.8906 85.3516,20.2188 Q84.7188,20.5469 84.2266,21.2969 Q83.7344,22.0469 83.7344,23.0781 L83.7344,24.1719 Q83.7344,25.4063 84.625,26.2266 Q85.5156,27.0469 87.1094,27.0469 Q88.0469,27.0469 88.7031,26.7969 Q89.0938,26.6406 89.5156,26.2031 Q89.7813,25.9375 89.9297,25.8594 Q90.0781,25.7813 90.2813,25.7813 Q90.6094,25.7813 90.8672,26.0391 Q91.125,26.2969 91.125,26.6406 Q91.125,26.9844 90.7813,27.3906 Q90.2813,27.9688 89.4844,28.2969 Q88.4063,28.75 87.1094,28.75 Q85.5938,28.75 84.3906,28.125 Q83.4063,27.625 82.7188,26.5547 Q82.0313,25.4844 82.0313,24.2031 L82.0313,23.0469 Q82.0313,21.7188 82.6484,20.5703 Q83.2656,19.4219 84.3594,18.8047 Q85.4531,18.1875 86.6875,18.1875 Q87.4219,18.1875 88.0703,18.3516 Q88.7188,18.5156 89.2656,18.875 Z " fill="#000000"/><text fill="#000000" font-family="sans-serif" font-size="14" lengthAdjust="spacing" textLength="35" x="100.5" y="28.7285">Class</text><line style="stroke:#181818;stroke-width:0.5;" x1="72.5" x2="137.5" y1="39" y2="39"/><line style="stroke:#181818;stroke-width:0.5;" x1="72.5" x2="137.5" y1="47" y2="47"/></g><!--MD5=[dbe10de0b0a3182229a74a2c953c71ad]
class BaseWidget--><g id="elem_BaseWidget"><rect codeLine="7" fill="#F1F1F1" height="100.8281" id="BaseWidget" rx="2.5" ry="2.5" style="stroke:#181818;stroke-width:0.5;" width="108" x="51" y="115"/><ellipse cx="66" cy="131" fill="#ADD1B2" rx="11" ry="11" style="stroke:#181818;stroke-width:1.0;"/><path d="M68.7656,126.875 Q68.9219,126.6563 69.1094,126.5469 Q69.2969,126.4375 69.5156,126.4375 Q69.8906,126.4375 70.125,126.6953 Q70.3594,126.9531 70.3594,127.5625 L70.3594,129.0156 Q70.3594,129.625 70.125,129.8906 Q69.8906,130.1563 69.5156,130.1563 Q69.1719,130.1563 68.9688,129.9531 Q68.7656,129.7656 68.6563,129.25 Q68.6094,128.8906 68.4219,128.7031 Q68.0938,128.3281 67.4844,128.1094 Q66.875,127.8906 66.25,127.8906 Q65.4844,127.8906 64.8516,128.2188 Q64.2188,128.5469 63.7266,129.2969 Q63.2344,130.0469 63.2344,131.0781 L63.2344,132.1719 Q63.2344,133.4063 64.125,134.2266 Q65.0156,135.0469 66.6094,135.0469 Q67.5469,135.0469 68.2031,134.7969 Q68.5938,134.6406 69.0156,134.2031 Q69.2813,133.9375 69.4297,133.8594 Q69.5781,133.7813 69.7813,133.7813 Q70.1094,133.7813 70.3672,134.0391 Q70.625,134.2969 70.625,134.6406 Q70.625,134.9844 70.2813,135.3906 Q69.7813,135.9688 68.9844,136.2969 Q67.9063,136.75 66.6094,136.75 Q65.0938,136.75 63.8906,136.125 Q62.9063,135.625 62.2188,134.5547 Q61.5313,133.4844 61.5313,132.2031 L61.5313,131.0469 Q61.5313,129.7188 62.1484,128.5703 Q62.7656,127.4219 63.8594,126.8047 Q64.9531,126.1875 66.1875,126.1875 Q66.9219,126.1875 67.5703,126.3516 Q68.2188,126.5156 68.7656,126.875 Z " fill="#000000"/><text fill="#000000" font-family="sans-serif" font-size="14" lengthAdjust="spacing" textLength="76" x="80" y="136.7285">BaseWidget</text><line style="stroke:#181818;stroke-width:0.5;" x1="52" x2="158" y1="147" y2="147"/><text fill="#000000" font-family="sans-serif" font-size="14" lengthAdjust="spacing" textLength="31" x="57" y="165.5332">state</text><line style="stroke:#181818;stroke-width:0.5;" x1="52" x2="158" y1="172.6094" y2="172.6094"/><text fill="#000000" font-family="sans-serif" font-size="14" lengthAdjust="spacing" textLength="26" x="57" y="191.1426">on()</text><text fill="#000000" font-family="sans-serif" font-size="14" lengthAdjust="spacing" textLength="51" x="57" y="208.752">trigger()</text></g><!--MD5=[7ad0343296aab7e96d5943960e551fe7]
class UIWidget--><g id="elem_UIWidget"><rect codeLine="13" fill="#F1F1F1" height="351.3594" id="UIWidget" rx="2.5" ry="2.5" style="stroke:#181818;stroke-width:0.5;" width="192" x="9" y="276"/><ellipse cx="72.75" cy="292" fill="#ADD1B2" rx="11" ry="11" style="stroke:#181818;stroke-width:1.0;"/><path d="M75.5156,287.875 Q75.6719,287.6563 75.8594,287.5469 Q76.0469,287.4375 76.2656,287.4375 Q76.6406,287.4375 76.875,287.6953 Q77.1094,287.9531 77.1094,288.5625 L77.1094,290.0156 Q77.1094,290.625 76.875,290.8906 Q76.6406,291.1563 76.2656,291.1563 Q75.9219,291.1563 75.7188,290.9531 Q75.5156,290.7656 75.4063,290.25 Q75.3594,289.8906 75.1719,289.7031 Q74.8438,289.3281 74.2344,289.1094 Q73.625,288.8906 73,288.8906 Q72.2344,288.8906 71.6016,289.2188 Q70.9688,289.5469 70.4766,290.2969 Q69.9844,291.0469 69.9844,292.0781 L69.9844,293.1719 Q69.9844,294.4063 70.875,295.2266 Q71.7656,296.0469 73.3594,296.0469 Q74.2969,296.0469 74.9531,295.7969 Q75.3438,295.6406 75.7656,295.2031 Q76.0313,294.9375 76.1797,294.8594 Q76.3281,294.7813 76.5313,294.7813 Q76.8594,294.7813 77.1172,295.0391 Q77.375,295.2969 77.375,295.6406 Q77.375,295.9844 77.0313,296.3906 Q76.5313,296.9688 75.7344,297.2969 Q74.6563,297.75 73.3594,297.75 Q71.8438,297.75 70.6406,297.125 Q69.6563,296.625 68.9688,295.5547 Q68.2813,294.4844 68.2813,293.2031 L68.2813,292.0469 Q68.2813,290.7188 68.8984,289.5703 Q69.5156,288.4219 70.6094,287.8047 Q71.7031,287.1875 72.9375,287.1875 Q73.6719,287.1875 74.3203,287.3516 Q74.9688,287.5156 75.5156,287.875 Z " fill="#000000"/><text fill="#000000" font-family="sans-serif" font-size="14" lengthAdjust="spacing" textLength="56" x="93.25" y="297.7285">UIWidget</text><line style="stroke:#181818;stroke-width:0.5;" x1="10" x2="200" y1="308" y2="308"/><polygon fill="none" points="20,335.6094,24,339.6094,20,343.6094,16,339.6094" style="stroke:#B38D22;stroke-width:1.0;"/><text fill="#000000" font-family="sans-serif" font-size="14" lengthAdjust="spacing" textLength="32" x="29" y="348.1426">node</text><line style="stroke:#181818;stroke-width:1.0;stroke-dasharray:1.0,2.0;" x1="10" x2="73" y1="324.8047" y2="324.8047"/><text fill="#000000" font-family="sans-serif" font-size="14" lengthAdjust="spacing" textLength="64" x="73" y="330.0332">properties</text><line style="stroke:#181818;stroke-width:1.0;stroke-dasharray:1.0,2.0;" x1="137" x2="200" y1="324.8047" y2="324.8047"/><text fill="#000000" font-family="sans-serif" font-size="14" lengthAdjust="spacing" textLength="37" x="15" y="387.3613">hide()</text><text fill="#000000" font-family="sans-serif" font-size="14" lengthAdjust="spacing" textLength="42" x="15" y="404.9707">show()</text><text fill="#000000" font-family="sans-serif" font-size="14" lengthAdjust="spacing" textLength="49" x="15" y="422.5801">toggle()</text><text fill="#000000" font-family="sans-serif" font-size="14" lengthAdjust="spacing" textLength="87" x="15" y="440.1895">toggle_busy()</text><text fill="#000000" font-family="sans-serif" font-size="14" lengthAdjust="spacing" textLength="96" x="15" y="457.7988">wiget() : jQuery</text><text fill="#000000" font-family="sans-serif" font-size="14" lengthAdjust="spacing" textLength="58" x="15" y="475.4082">ready(fn)</text><text fill="#000000" font-family="sans-serif" font-size="14" lengthAdjust="spacing" textLength="4" x="15" y="493.0176"> </text><text fill="#000000" font-family="sans-serif" font-size="14" lengthAdjust="spacing" textLength="68" x="15" y="510.627">construct()</text><text fill="#000000" font-family="sans-serif" font-size="14" lengthAdjust="spacing" textLength="68" x="15" y="528.2363">draw(data)</text><text fill="#000000" font-family="sans-serif" font-size="14" lengthAdjust="spacing" textLength="47" x="15" y="545.8457">reflow()</text><line style="stroke:#181818;stroke-width:1.0;stroke-dasharray:1.0,2.0;" x1="10" x2="78" y1="364.0234" y2="364.0234"/><text fill="#000000" font-family="sans-serif" font-size="14" lengthAdjust="spacing" textLength="54" x="78" y="369.252">methods</text><line style="stroke:#181818;stroke-width:1.0;stroke-dasharray:1.0,2.0;" x1="132" x2="200" y1="364.0234" y2="364.0234"/><text fill="#000000" font-family="sans-serif" font-size="14" lengthAdjust="spacing" text-decoration="underline" textLength="159" x="15" y="585.0645">create_on(location, attrs)</text><text fill="#000000" font-family="sans-serif" font-size="14" lengthAdjust="spacing" text-decoration="underline" textLength="180" x="15" y="602.6738">create_inside(location, attrs)</text><text fill="#000000" font-family="sans-serif" font-size="14" lengthAdjust="spacing" text-decoration="underline" textLength="163" x="15" y="620.2832">append_to(location, attrs)</text><line style="stroke:#181818;stroke-width:1.0;stroke-dasharray:1.0,2.0;" x1="10" x2="88.5" y1="561.7266" y2="561.7266"/><text fill="#000000" font-family="sans-serif" font-size="14" lengthAdjust="spacing" textLength="33" x="88.5" y="566.9551">static</text><line style="stroke:#181818;stroke-width:1.0;stroke-dasharray:1.0,2.0;" x1="121.5" x2="200" y1="561.7266" y2="561.7266"/></g><!--MD5=[203a38a91f72124ac51dc1871360013f]
class DataWidget--><g id="elem_DataWidget"><rect codeLine="33" fill="#F1F1F1" height="157.6563" id="DataWidget" rx="2.5" ry="2.5" style="stroke:#181818;stroke-width:0.5;" width="125" x="42.5" y="687"/><ellipse cx="66.05" cy="703" fill="#ADD1B2" rx="11" ry="11" style="stroke:#181818;stroke-width:1.0;"/><path d="M68.8156,698.875 Q68.9719,698.6563 69.1594,698.5469 Q69.3469,698.4375 69.5656,698.4375 Q69.9406,698.4375 70.175,698.6953 Q70.4094,698.9531 70.4094,699.5625 L70.4094,701.0156 Q70.4094,701.625 70.175,701.8906 Q69.9406,702.1563 69.5656,702.1563 Q69.2219,702.1563 69.0188,701.9531 Q68.8156,701.7656 68.7063,701.25 Q68.6594,700.8906 68.4719,700.7031 Q68.1438,700.3281 67.5344,700.1094 Q66.925,699.8906 66.3,699.8906 Q65.5344,699.8906 64.9016,700.2188 Q64.2688,700.5469 63.7766,701.2969 Q63.2844,702.0469 63.2844,703.0781 L63.2844,704.1719 Q63.2844,705.4063 64.175,706.2266 Q65.0656,707.0469 66.6594,707.0469 Q67.5969,707.0469 68.2531,706.7969 Q68.6438,706.6406 69.0656,706.2031 Q69.3313,705.9375 69.4797,705.8594 Q69.6281,705.7813 69.8313,705.7813 Q70.1594,705.7813 70.4172,706.0391 Q70.675,706.2969 70.675,706.6406 Q70.675,706.9844 70.3313,707.3906 Q69.8313,707.9688 69.0344,708.2969 Q67.9563,708.75 66.6594,708.75 Q65.1438,708.75 63.9406,708.125 Q62.9563,707.625 62.2688,706.5547 Q61.5813,705.4844 61.5813,704.2031 L61.5813,703.0469 Q61.5813,701.7188 62.1984,700.5703 Q62.8156,699.4219 63.9094,698.8047 Q65.0031,698.1875 66.2375,698.1875 Q66.9719,698.1875 67.6203,698.3516 Q68.2688,698.5156 68.8156,698.875 Z " fill="#000000"/><text fill="#000000" font-family="sans-serif" font-size="14" lengthAdjust="spacing" textLength="74" x="81.95" y="708.7285">DataWidget</text><line style="stroke:#181818;stroke-width:0.5;" x1="43.5" x2="166.5" y1="719" y2="719"/><polygon fill="none" points="53.5,746.6094,57.5,750.6094,53.5,754.6094,49.5,750.6094" style="stroke:#B38D22;stroke-width:1.0;"/><text fill="#000000" font-family="sans-serif" font-size="14" lengthAdjust="spacing" textLength="28" x="62.5" y="759.1426">data</text><line style="stroke:#181818;stroke-width:1.0;stroke-dasharray:1.0,2.0;" x1="43.5" x2="73" y1="735.8047" y2="735.8047"/><text fill="#000000" font-family="sans-serif" font-size="14" lengthAdjust="spacing" textLength="64" x="73" y="741.0332">properties</text><line style="stroke:#181818;stroke-width:1.0;stroke-dasharray:1.0,2.0;" x1="137" x2="166.5" y1="735.8047" y2="735.8047"/><ellipse cx="53.5" cy="790.8281" fill="none" rx="3" ry="3" style="stroke:#038048;stroke-width:1.0;"/><text fill="#000000" font-family="sans-serif" font-size="14" lengthAdjust="spacing" textLength="47" x="62.5" y="798.3613">change</text><line style="stroke:#181818;stroke-width:1.0;stroke-dasharray:1.0,2.0;" x1="43.5" x2="83" y1="775.0234" y2="775.0234"/><text fill="#000000" font-family="sans-serif" font-size="14" lengthAdjust="spacing" textLength="44" x="83" y="780.252">signals</text><line style="stroke:#181818;stroke-width:1.0;stroke-dasharray:1.0,2.0;" x1="127" x2="166.5" y1="775.0234" y2="775.0234"/><text fill="#000000" font-family="sans-serif" font-size="14" lengthAdjust="spacing" textLength="113" x="48.5" y="837.5801">data_changed(...)</text><line style="stroke:#181818;stroke-width:1.0;stroke-dasharray:1.0,2.0;" x1="43.5" x2="78" y1="814.2422" y2="814.2422"/><text fill="#000000" font-family="sans-serif" font-size="14" lengthAdjust="spacing" textLength="54" x="78" y="819.4707">methods</text><line style="stroke:#181818;stroke-width:1.0;stroke-dasharray:1.0,2.0;" x1="132" x2="166.5" y1="814.2422" y2="814.2422"/></g><!--MD5=[ea6e084d674609d0738c60c46ed7758a]
class ServerWidget--><g id="elem_ServerWidget"><rect codeLine="42" fill="#F1F1F1" height="114.4375" id="ServerWidget" rx="2.5" ry="2.5" style="stroke:#181818;stroke-width:0.5;" width="123" x="43.5" y="905"/><ellipse cx="60.75" cy="921" fill="#ADD1B2" rx="11" ry="11" style="stroke:#181818;stroke-width:1.0;"/><path d="M63.5156,916.875 Q63.6719,916.6563 63.8594,916.5469 Q64.0469,916.4375 64.2656,916.4375 Q64.6406,916.4375 64.875,916.6953 Q65.1094,916.9531 65.1094,917.5625 L65.1094,919.0156 Q65.1094,919.625 64.875,919.8906 Q64.6406,920.1563 64.2656,920.1563 Q63.9219,920.1563 63.7188,919.9531 Q63.5156,919.7656 63.4063,919.25 Q63.3594,918.8906 63.1719,918.7031 Q62.8438,918.3281 62.2344,918.1094 Q61.625,917.8906 61,917.8906 Q60.2344,917.8906 59.6016,918.2188 Q58.9688,918.5469 58.4766,919.2969 Q57.9844,920.0469 57.9844,921.0781 L57.9844,922.1719 Q57.9844,923.4063 58.875,924.2266 Q59.7656,925.0469 61.3594,925.0469 Q62.2969,925.0469 62.9531,924.7969 Q63.3438,924.6406 63.7656,924.2031 Q64.0313,923.9375 64.1797,923.8594 Q64.3281,923.7813 64.5313,923.7813 Q64.8594,923.7813 65.1172,924.0391 Q65.375,924.2969 65.375,924.6406 Q65.375,924.9844 65.0313,925.3906 Q64.5313,925.9688 63.7344,926.2969 Q62.6563,926.75 61.3594,926.75 Q59.8438,926.75 58.6406,926.125 Q57.6563,925.625 56.9688,924.5547 Q56.2813,923.4844 56.2813,922.2031 L56.2813,921.0469 Q56.2813,919.7188 56.8984,918.5703 Q57.5156,917.4219 58.6094,916.8047 Q59.7031,916.1875 60.9375,916.1875 Q61.6719,916.1875 62.3203,916.3516 Q62.9688,916.5156 63.5156,916.875 Z " fill="#000000"/><text fill="#000000" font-family="sans-serif" font-size="14" lengthAdjust="spacing" textLength="86" x="75.25" y="926.7285">ServerWidget</text><line style="stroke:#181818;stroke-width:0.5;" x1="44.5" x2="165.5" y1="937" y2="937"/><text fill="#000000" font-family="sans-serif" font-size="14" lengthAdjust="spacing" textLength="38" x="49.5" y="955.5332">cache</text><text fill="#000000" font-family="sans-serif" font-size="14" lengthAdjust="spacing" textLength="55" x="49.5" y="994.752">refresh()</text><text fill="#000000" font-family="sans-serif" font-size="14" lengthAdjust="spacing" textLength="111" x="49.5" y="1012.3613">fetch_json_data()</text><line style="stroke:#181818;stroke-width:1.0;stroke-dasharray:1.0,2.0;" x1="44.5" x2="78" y1="971.4141" y2="971.4141"/><text fill="#000000" font-family="sans-serif" font-size="14" lengthAdjust="spacing" textLength="54" x="78" y="976.6426">methods</text><line style="stroke:#181818;stroke-width:1.0;stroke-dasharray:1.0,2.0;" x1="132" x2="165.5" y1="971.4141" y2="971.4141"/></g><!--MD5=[e9dc9881b850c1e2d2a8f30edb40e840]
class Widget--><g id="elem_Widget"><rect fill="#F1F1F1" height="48" id="Widget" rx="2.5" ry="2.5" style="stroke:#181818;stroke-width:0.5;" width="76" x="67" y="1079"/><ellipse cx="82" cy="1095" fill="#ADD1B2" rx="11" ry="11" style="stroke:#181818;stroke-width:1.0;"/><path d="M84.7656,1090.875 Q84.9219,1090.6563 85.1094,1090.5469 Q85.2969,1090.4375 85.5156,1090.4375 Q85.8906,1090.4375 86.125,1090.6953 Q86.3594,1090.9531 86.3594,1091.5625 L86.3594,1093.0156 Q86.3594,1093.625 86.125,1093.8906 Q85.8906,1094.1563 85.5156,1094.1563 Q85.1719,1094.1563 84.9688,1093.9531 Q84.7656,1093.7656 84.6563,1093.25 Q84.6094,1092.8906 84.4219,1092.7031 Q84.0938,1092.3281 83.4844,1092.1094 Q82.875,1091.8906 82.25,1091.8906 Q81.4844,1091.8906 80.8516,1092.2188 Q80.2188,1092.5469 79.7266,1093.2969 Q79.2344,1094.0469 79.2344,1095.0781 L79.2344,1096.1719 Q79.2344,1097.4063 80.125,1098.2266 Q81.0156,1099.0469 82.6094,1099.0469 Q83.5469,1099.0469 84.2031,1098.7969 Q84.5938,1098.6406 85.0156,1098.2031 Q85.2813,1097.9375 85.4297,1097.8594 Q85.5781,1097.7813 85.7813,1097.7813 Q86.1094,1097.7813 86.3672,1098.0391 Q86.625,1098.2969 86.625,1098.6406 Q86.625,1098.9844 86.2813,1099.3906 Q85.7813,1099.9688 84.9844,1100.2969 Q83.9063,1100.75 82.6094,1100.75 Q81.0938,1100.75 79.8906,1100.125 Q78.9063,1099.625 78.2188,1098.5547 Q77.5313,1097.4844 77.5313,1096.2031 L77.5313,1095.0469 Q77.5313,1093.7188 78.1484,1092.5703 Q78.7656,1091.4219 79.8594,1090.8047 Q80.9531,1090.1875 82.1875,1090.1875 Q82.9219,1090.1875 83.5703,1090.3516 Q84.2188,1090.5156 84.7656,1090.875 Z " fill="#000000"/><text fill="#000000" font-family="sans-serif" font-size="14" lengthAdjust="spacing" textLength="44" x="96" y="1100.7285">Widget</text><line style="stroke:#181818;stroke-width:0.5;" x1="68" x2="142" y1="1111" y2="1111"/><line style="stroke:#181818;stroke-width:0.5;" x1="68" x2="142" y1="1119" y2="1119"/></g><!--MD5=[7bd9aa3ae11d9c5e9f793b96a40ada77]
reverse link Class to BaseWidget--><g id="link_Class_BaseWidget"><path codeLine="1" d="M105,75.34 C105,87.95 105,101.82 105,114.8 " fill="none" id="Class-backto-BaseWidget" style="stroke:#181818;stroke-width:1.0;"/><polygon fill="none" points="98,75.08,105,55.08,112,75.08,98,75.08" style="stroke:#181818;stroke-width:1.0;"/></g><!--MD5=[dfd7153163b77f04e51d94303dfee872]
reverse link BaseWidget to UIWidget--><g id="link_BaseWidget_UIWidget"><path codeLine="2" d="M105,236.6 C105,248.89 105,262.15 105,275.85 " fill="none" id="BaseWidget-backto-UIWidget" style="stroke:#181818;stroke-width:1.0;"/><polygon fill="none" points="98,236.29,105,216.29,112,236.29,98,236.29" style="stroke:#181818;stroke-width:1.0;"/></g><!--MD5=[b871212e5c79c740f7f3d1c49b18c716]
reverse link UIWidget to DataWidget--><g id="link_UIWidget_DataWidget"><path codeLine="3" d="M105,647.33 C105,661.03 105,674.3 105,686.69 " fill="none" id="UIWidget-backto-DataWidget" style="stroke:#181818;stroke-width:1.0;"/><polygon fill="none" points="98,647.02,105,627.02,112,647.02,98,647.02" style="stroke:#181818;stroke-width:1.0;"/></g><!--MD5=[9364ae584c651dabf88c09f95d222bc2]
reverse link DataWidget to ServerWidget--><g id="link_DataWidget_ServerWidget"><path codeLine="4" d="M105,865.47 C105,878.99 105,892.46 105,904.85 " fill="none" id="DataWidget-backto-ServerWidget" style="stroke:#181818;stroke-width:1.0;"/><polygon fill="none" points="98,865.07,105,845.07,112,865.07,98,865.07" style="stroke:#181818;stroke-width:1.0;"/></g><!--MD5=[b51968d5b533c168b4d3b43748a0d250]
reverse link ServerWidget to Widget--><g id="link_ServerWidget_Widget"><path codeLine="5" d="M105,1039.37 C105,1053.68 105,1067.6 105,1078.67 " fill="none" id="ServerWidget-backto-Widget" style="stroke:#181818;stroke-width:1.0;"/><polygon fill="none" points="98,1039.14,105,1019.14,112,1039.14,98,1039.14" style="stroke:#181818;stroke-width:1.0;"/></g><!--MD5=[6a224d8a618a984eaf3b6f9d9753803a]
@startuml
Class <|- - BaseWidget
BaseWidget <|- - UIWidget
UIWidget <|- - DataWidget
DataWidget <|- - ServerWidget
ServerWidget <|- - Widget

class BaseWidget {
    state
    on()
    trigger()
}

class UIWidget {
    .. properties ..
    #node
    .. methods ..
    hide()
    show()
    toggle()
    toggle_busy()
    wiget() : jQuery
    ready(fn)

    construct()
    draw(data)
    reflow()
    .. static ..
    {static} create_on(location, attrs)
    {static} create_inside(location, attrs)
    {static} append_to(location, attrs)    
}

class DataWidget {
    .. properties ..
    #data
    .. signals ..
    +change
    .. methods ..
    data_changed(...)
}

class ServerWidget {
    cache
    .. methods ..
    refresh()
    fetch_json_data()
}
@enduml

PlantUML version 1.2022.6(Tue Jun 21 19:34:49 CEST 2022)
(GPL source distribution)
Java Runtime: Java(TM) SE Runtime Environment
JVM: Java HotSpot(TM) Client VM
Default Encoding: Cp1252
Language: en
Country: US
--></g></svg>